<!--?xml version="1.0" standalone="no"?-->
              <svg id="sw-js-blob-svg" viewBox="0 0 100 100" xmlns="http://www.w3.org/2000/svg" version="1.1">
                    <defs> 
                        <linearGradient id="sw-gradient" x1="0" x2="1" y1="1" y2="0">
                            <stop id="stop1" stop-color="rgba(131, 63, 30, 1)" offset="0%"></stop>
                            <stop id="stop2" stop-color="rgba(255, 238, 209, 1)" offset="100%"></stop>
                        </linearGradient>
                    </defs>
                <path fill="url(#sw-gradient)" d="M19.7,-25C26.3,-17.9,32.9,-12.4,35.7,-5.1C38.4,2.2,37.1,11.5,32.4,18C27.8,24.4,19.7,28.2,11.3,31.4C2.9,34.5,-5.8,37.1,-13.9,35.4C-22.1,33.7,-29.6,27.6,-32.6,20C-35.5,12.4,-33.9,3.4,-30.8,-3.9C-27.7,-11.3,-23.3,-16.9,-17.9,-24.2C-12.6,-31.6,-6.3,-40.7,0.1,-40.8C6.5,-40.9,13.1,-32.2,19.7,-25Z" width="100%" height="100%" transform="translate(50 50)" stroke-width="0" style="transition: all 0.3s ease 0s;" stroke="url(#sw-gradient)"></path>
              </svg>