<!--?xml version="1.0" standalone="no"?-->
              <svg id="sw-js-blob-svg" viewBox="0 0 100 100" xmlns="http://www.w3.org/2000/svg" version="1.1">
                    <defs> 
                        <linearGradient id="sw-gradient" x1="0" x2="1" y1="1" y2="0">
                            <stop id="stop1" stop-color="rgba(131, 63, 30, 1)" offset="0%"></stop>
                            <stop id="stop2" stop-color="rgba(255, 238, 209, 1)" offset="100%"></stop>
                        </linearGradient>
                    </defs>
                <path fill="url(#sw-gradient)" d="M14.4,-15.7C18.6,-13.6,22,-9,25.1,-2.7C28.2,3.5,31,11.5,29.6,19.9C28.1,28.3,22.4,37.1,14.5,39.9C6.7,42.8,-3.3,39.8,-10.2,34.4C-17,29.1,-20.6,21.5,-24.6,14.3C-28.6,7.1,-32.9,0.3,-32.4,-6.2C-31.8,-12.6,-26.2,-18.6,-20,-20.4C-13.7,-22.1,-6.9,-19.7,-0.9,-18.6C5.1,-17.5,10.1,-17.8,14.4,-15.7Z" width="100%" height="100%" transform="translate(50 50)" stroke-width="0" style="transition: all 0.3s ease 0s;" stroke="url(#sw-gradient)"></path>
              </svg>